<mxfile host="app.diagrams.net" modified="2024-01-04T14:46:08.735Z" agent="Mozilla/5.0 (Windows NT 10.0; Win64; x64) AppleWebKit/537.36 (KHTML, like Gecko) Chrome/120.0.0.0 Safari/537.36" etag="9JTxDH47RcdAJUdO71bz" version="22.1.16" type="github">
  <diagram name="Pagina-1" id="marIUB4x0UTAcALpK-SU">
    <mxGraphModel dx="2074" dy="746" grid="1" gridSize="10" guides="1" tooltips="1" connect="1" arrows="1" fold="1" page="1" pageScale="1" pageWidth="827" pageHeight="1169" math="0" shadow="0">
      <root>
        <mxCell id="0" />
        <mxCell id="1" parent="0" />
        <mxCell id="DKW2v1OPlWQeZZSoQv6L-1" value="QNAP" style="image;aspect=fixed;perimeter=ellipsePerimeter;html=1;align=center;shadow=0;dashed=0;spacingTop=3;image=img/lib/active_directory/generic_server.svg;" vertex="1" parent="1">
          <mxGeometry x="250" y="70" width="28.000000000000004" height="50" as="geometry" />
        </mxCell>
        <mxCell id="DKW2v1OPlWQeZZSoQv6L-2" value="Giacomo&lt;br&gt;(ONLINE)" style="image;points=[];aspect=fixed;html=1;align=center;shadow=0;dashed=0;image=img/lib/allied_telesis/computer_and_terminals/Personal_Computer.svg;" vertex="1" parent="1">
          <mxGeometry x="630" y="50" width="45.6" height="61.800000000000004" as="geometry" />
        </mxCell>
        <mxCell id="DKW2v1OPlWQeZZSoQv6L-3" value="Nicola&lt;br&gt;(ONLINE)" style="image;points=[];aspect=fixed;html=1;align=center;shadow=0;dashed=0;image=img/lib/allied_telesis/computer_and_terminals/Personal_Computer.svg;" vertex="1" parent="1">
          <mxGeometry x="630" y="160" width="45.6" height="61.800000000000004" as="geometry" />
        </mxCell>
        <mxCell id="DKW2v1OPlWQeZZSoQv6L-4" value="Nicola&lt;br&gt;(LOCAL)" style="image;points=[];aspect=fixed;html=1;align=center;shadow=0;dashed=0;image=img/lib/allied_telesis/computer_and_terminals/Personal_Computer.svg;" vertex="1" parent="1">
          <mxGeometry x="630" y="270" width="45.6" height="61.800000000000004" as="geometry" />
        </mxCell>
        <mxCell id="DKW2v1OPlWQeZZSoQv6L-7" value="Nicola&lt;br&gt;(ONLINE)" style="sketch=0;pointerEvents=1;shadow=0;dashed=0;html=1;strokeColor=none;fillColor=#505050;labelPosition=center;verticalLabelPosition=bottom;verticalAlign=top;outlineConnect=0;align=center;shape=mxgraph.office.devices.cell_phone_iphone_standalone;" vertex="1" parent="1">
          <mxGeometry x="640.3" y="380" width="25" height="42" as="geometry" />
        </mxCell>
        <mxCell id="DKW2v1OPlWQeZZSoQv6L-8" value="Giacomo&lt;br&gt;(ONLINE)" style="sketch=0;pointerEvents=1;shadow=0;dashed=0;html=1;strokeColor=none;fillColor=#505050;labelPosition=center;verticalLabelPosition=bottom;verticalAlign=top;outlineConnect=0;align=center;shape=mxgraph.office.devices.cell_phone_iphone_standalone;" vertex="1" parent="1">
          <mxGeometry x="640.3" y="470" width="25" height="42" as="geometry" />
        </mxCell>
      </root>
    </mxGraphModel>
  </diagram>
</mxfile>
